<svg width="186" height="186" viewBox="0 0 186 186" fill="none" xmlns="http://www.w3.org/2000/svg">
<path d="M93 41.075V165.307C91.6825 165.307 90.2875 165.075 89.2025 164.455L88.8925 164.3C74.0125 156.163 48.05 147.637 31.2325 145.39L28.985 145.08C21.545 144.15 15.5 137.175 15.5 129.735V36.115C15.5 26.8925 23.0175 19.9175 32.24 20.6925C48.515 22.01 73.16 30.225 86.955 38.8275L88.8925 39.99C90.055 40.6875 91.5275 41.075 93 41.075Z" fill="#BFA054"/>
<path d="M170.5 36.1925V129.735C170.5 137.175 164.455 144.15 157.015 145.08L154.458 145.39C137.562 147.637 111.523 156.24 96.6425 164.455C95.635 165.075 94.395 165.307 93 165.307V41.075C94.4725 41.075 95.945 40.6875 97.1075 39.99L98.425 39.1375C112.22 30.4575 136.943 22.165 153.218 20.77H153.682C162.905 19.995 170.5 26.8925 170.5 36.1925Z" fill="#2F2F2F"/>
<path d="M60.0625 71.61H42.625C39.4475 71.61 36.8125 68.975 36.8125 65.7975C36.8125 62.62 39.4475 59.985 42.625 59.985H60.0625C63.24 59.985 65.875 62.62 65.875 65.7975C65.875 68.975 63.24 71.61 60.0625 71.61Z" fill="#2F2F2F"/>
<path d="M65.875 94.86H42.625C39.4475 94.86 36.8125 92.225 36.8125 89.0475C36.8125 85.87 39.4475 83.235 42.625 83.235H65.875C69.0525 83.235 71.6875 85.87 71.6875 89.0475C71.6875 92.225 69.0525 94.86 65.875 94.86Z" fill="#2F2F2F"/>
</svg>
