<svg width="350" height="348" viewBox="0 0 350 348" fill="none" xmlns="http://www.w3.org/2000/svg">
<rect width="350" height="348" fill="white"/>
<path d="M175 122.075V246.307C173.683 246.307 172.287 246.075 171.202 245.455L170.893 245.3C156.013 237.163 130.05 228.637 113.233 226.39L110.985 226.08C103.545 225.15 97.5 218.175 97.5 210.735V117.115C97.5 107.892 105.017 100.917 114.24 101.692C130.515 103.01 155.16 111.225 168.955 119.827L170.893 120.99C172.055 121.687 173.527 122.075 175 122.075Z" fill="#BFA054"/>
<path d="M252.5 117.192V210.735C252.5 218.175 246.455 225.15 239.015 226.08L236.458 226.39C219.562 228.637 193.523 237.24 178.643 245.455C177.635 246.075 176.395 246.307 175 246.307V122.075C176.472 122.075 177.945 121.687 179.107 120.99L180.425 120.137C194.22 111.457 218.943 103.165 235.218 101.77H235.682C244.905 100.995 252.5 107.892 252.5 117.192Z" fill="#2F2F2F"/>
<path d="M142.062 152.61H124.625C121.447 152.61 118.812 149.975 118.812 146.797C118.812 143.62 121.447 140.985 124.625 140.985H142.062C145.24 140.985 147.875 143.62 147.875 146.797C147.875 149.975 145.24 152.61 142.062 152.61Z" fill="#2F2F2F"/>
<path d="M147.875 175.86H124.625C121.447 175.86 118.812 173.225 118.812 170.047C118.812 166.87 121.447 164.235 124.625 164.235H147.875C151.053 164.235 153.688 166.87 153.688 170.047C153.688 173.225 151.053 175.86 147.875 175.86Z" fill="#2F2F2F"/>
</svg>
