<svg width="25" height="25" viewBox="0 0 25 25" fill="none" xmlns="http://www.w3.org/2000/svg">
<g clip-path="url(#clip0_653_3)">
<path fill-rule="evenodd" clip-rule="evenodd" d="M3.04886 4.31539C3.04886 4.13779 3.11941 3.96747 3.24499 3.84189C3.37057 3.7163 3.5409 3.64575 3.7185 3.64575H5.72743C5.8768 3.64579 6.02187 3.69578 6.13957 3.78775C6.25727 3.87972 6.34084 4.00841 6.37698 4.15334L6.91939 6.32432H22.4685C22.5702 6.32435 22.6706 6.34755 22.762 6.39216C22.8534 6.43677 22.9335 6.50162 22.9961 6.58179C23.0587 6.66195 23.1022 6.75533 23.1233 6.85482C23.1445 6.95432 23.1427 7.05733 23.1181 7.15602L21.1091 15.1917C21.073 15.3367 20.9894 15.4654 20.8717 15.5573C20.754 15.6493 20.6089 15.6993 20.4596 15.6993H8.406C8.25663 15.6993 8.11156 15.6493 7.99386 15.5573C7.87616 15.4654 7.7926 15.3367 7.75645 15.1917L5.20511 4.98504H3.7185C3.5409 4.98504 3.37057 4.91449 3.24499 4.7889C3.11941 4.66332 3.04886 4.493 3.04886 4.31539ZM7.25422 7.66361L8.92832 14.36H19.9373L21.6114 7.66361H7.25422ZM9.74529 18.3779C9.39009 18.3779 9.04943 18.519 8.79827 18.7702C8.5471 19.0213 8.406 19.362 8.406 19.7172C8.406 20.0724 8.5471 20.413 8.79827 20.6642C9.04943 20.9154 9.39009 21.0565 9.74529 21.0565C10.1005 21.0565 10.4411 20.9154 10.6923 20.6642C10.9435 20.413 11.0846 20.0724 11.0846 19.7172C11.0846 19.362 10.9435 19.0213 10.6923 18.7702C10.4411 18.519 10.1005 18.3779 9.74529 18.3779ZM7.06672 19.7172C7.06672 19.0068 7.34892 18.3255 7.85125 17.8231C8.35358 17.3208 9.03489 17.0386 9.74529 17.0386C10.4557 17.0386 11.137 17.3208 11.6393 17.8231C12.1417 18.3255 12.4239 19.0068 12.4239 19.7172C12.4239 20.4276 12.1417 21.1089 11.6393 21.6112C11.137 22.1135 10.4557 22.3958 9.74529 22.3958C9.03489 22.3958 8.35358 22.1135 7.85125 21.6112C7.34892 21.1089 7.06672 20.4276 7.06672 19.7172ZM19.1203 18.3779C18.7651 18.3779 18.4244 18.519 18.1733 18.7702C17.9221 19.0213 17.781 19.362 17.781 19.7172C17.781 20.0724 17.9221 20.413 18.1733 20.6642C18.4244 20.9154 18.7651 21.0565 19.1203 21.0565C19.4755 21.0565 19.8161 20.9154 20.0673 20.6642C20.3185 20.413 20.4596 20.0724 20.4596 19.7172C20.4596 19.362 20.3185 19.0213 20.0673 18.7702C19.8161 18.519 19.4755 18.3779 19.1203 18.3779ZM16.4417 19.7172C16.4417 19.0068 16.7239 18.3255 17.2263 17.8231C17.7286 17.3208 18.4099 17.0386 19.1203 17.0386C19.8307 17.0386 20.512 17.3208 21.0143 17.8231C21.5167 18.3255 21.7989 19.0068 21.7989 19.7172C21.7989 20.4276 21.5167 21.1089 21.0143 21.6112C20.512 22.1135 19.8307 22.3958 19.1203 22.3958C18.4099 22.3958 17.7286 22.1135 17.2263 21.6112C16.7239 21.1089 16.4417 20.4276 16.4417 19.7172Z" fill="black"/>
</g>
<defs>
<clipPath id="clip0_653_3">
<rect width="25" height="25" fill="white"/>
</clipPath>
</defs>
</svg>
